<?xml version="1.0" encoding="UTF-8" standalone="no"?>
<!--?xml version="1.0" encoding="utf-8"?-->

<!-- Generator: Adobe Illustrator 18.1.1, SVG Export Plug-In . SVG Version: 6.00 Build 0)  -->

<svg
   version="1.1"
   id="_x32_"
   x="0px"
   y="0px"
   viewBox="0 0 512 512"
   style="width: 128px; height: 128px; opacity: 1;"
   xml:space="preserve"
   sodipodi:docname="bookmark.svg"
   inkscape:version="1.2.1 (9c6d41e410, 2022-07-14)"
   xmlns:inkscape="http://www.inkscape.org/namespaces/inkscape"
   xmlns:sodipodi="http://sodipodi.sourceforge.net/DTD/sodipodi-0.dtd"
   xmlns="http://www.w3.org/2000/svg"
   xmlns:svg="http://www.w3.org/2000/svg"><defs
   id="defs11" /><sodipodi:namedview
   id="namedview9"
   pagecolor="#ffffff"
   bordercolor="#000000"
   borderopacity="0.25"
   inkscape:showpageshadow="2"
   inkscape:pageopacity="0.0"
   inkscape:pagecheckerboard="0"
   inkscape:deskcolor="#d1d1d1"
   showgrid="false"
   inkscape:zoom="0.921875"
   inkscape:cx="362.30508"
   inkscape:cy="105.22034"
   inkscape:window-width="2256"
   inkscape:window-height="1398"
   inkscape:window-x="-11"
   inkscape:window-y="-11"
   inkscape:window-maximized="1"
   inkscape:current-layer="_x32_" />
<style
   type="text/css"
   id="style2">
	.st0{fill:#4B4B4B;}
</style>
<g
   id="g6"
   transform="matrix(1.0851474,0,0,1,-21.255364,0)">
	<polygon
   class="st0"
   points="256,426.452 491.683,512 491.683,0 20.317,0 20.317,512 "
   style="fill:#c0c0c0"
   id="polygon4" />
</g>
<style
   type="text/css"
   id="style311">
	.st0{fill:#4B4B4B;}
</style><g
   style="opacity:1"
   id="g325"
   transform="matrix(0.5432,0,0,0.5432,118.02539,73.822086)"><g
     id="g315">
	<path
   class="st0"
   d="m 510.549,196.024 c -3.812,-11.726 -14.5,-19.868 -26.82,-20.42 L 335.794,168.918 283.704,30.276 C 279.37,18.739 268.329,11.089 256,11.089 c -12.329,0 -23.37,7.65 -27.704,19.187 l -52.089,138.642 -147.935,6.686 c -12.321,0.552 -23.008,8.694 -26.821,20.42 -3.812,11.726 0.052,24.598 9.689,32.283 l 115.756,92.368 -39.354,142.778 c -3.27,11.889 1.155,24.554 11.136,31.808 9.985,7.246 23.404,7.548 33.704,0.758 L 256,414.473 379.617,496.02 c 10.3,6.789 23.719,6.487 33.704,-0.758 9.982,-7.245 14.405,-19.92 11.131,-31.808 L 385.105,320.675 500.861,228.307 c 9.637,-7.686 13.501,-20.558 9.688,-32.283 z"
   style="fill:#ffffff"
   id="path313" />
</g></g></svg>
