<?xml version="1.0" encoding="UTF-8" standalone="no"?>
<!--?xml version="1.0" encoding="utf-8"?-->

<!-- Generator: Adobe Illustrator 18.1.1, SVG Export Plug-In . SVG Version: 6.00 Build 0)  -->

<svg
   version="1.1"
   id="_x32_"
   x="0px"
   y="0px"
   viewBox="0 0 512 512"
   style="width: 128px; height: 128px; opacity: 1;"
   xml:space="preserve"
   sodipodi:docname="bookmark_on.svg"
   inkscape:version="1.2.1 (9c6d41e410, 2022-07-14)"
   xmlns:inkscape="http://www.inkscape.org/namespaces/inkscape"
   xmlns:sodipodi="http://sodipodi.sourceforge.net/DTD/sodipodi-0.dtd"
   xmlns="http://www.w3.org/2000/svg"
   xmlns:svg="http://www.w3.org/2000/svg"><defs
   id="defs11" /><sodipodi:namedview
   id="namedview9"
   pagecolor="#ffffff"
   bordercolor="#000000"
   borderopacity="0.25"
   inkscape:showpageshadow="2"
   inkscape:pageopacity="0.0"
   inkscape:pagecheckerboard="0"
   inkscape:deskcolor="#d1d1d1"
   showgrid="false"
   inkscape:zoom="0.921875"
   inkscape:cx="363.38983"
   inkscape:cy="107.9322"
   inkscape:window-width="2256"
   inkscape:window-height="1398"
   inkscape:window-x="-11"
   inkscape:window-y="-11"
   inkscape:window-maximized="1"
   inkscape:current-layer="_x32_" />
<style
   type="text/css"
   id="style2">
	.st0{fill:#4B4B4B;}
</style>
<g
   id="g6"
   transform="matrix(1.0851474,0,0,1,-21.255364,0)">
	<polygon
   class="st0"
   points="256,426.452 491.683,512 491.683,0 20.317,0 20.317,512 "
   style="fill:#c0c0c0"
   id="polygon4" />
</g>
<style
   type="text/css"
   id="style311">
	.st0{fill:#4B4B4B;}
</style><g
   style="opacity:1"
   id="g325"
   transform="matrix(0.5432,0,0,0.5432,118.02539,73.822086)"><g
     id="g315">
	<path
   class="st0"
   d="m 510.549,196.024 c -3.812,-11.726 -14.5,-19.868 -26.82,-20.42 L 335.794,168.918 283.704,30.276 C 279.37,18.739 268.329,11.089 256,11.089 c -12.329,0 -23.37,7.65 -27.704,19.187 l -52.089,138.642 -147.935,6.686 c -12.321,0.552 -23.008,8.694 -26.821,20.42 -3.812,11.726 0.052,24.598 9.689,32.283 l 115.756,92.368 -39.354,142.778 c -3.27,11.889 1.155,24.554 11.136,31.808 9.985,7.246 23.404,7.548 33.704,0.758 L 256,414.473 379.617,496.02 c 10.3,6.789 23.719,6.487 33.704,-0.758 9.982,-7.245 14.405,-19.92 11.131,-31.808 L 385.105,320.675 500.861,228.307 c 9.637,-7.686 13.501,-20.558 9.688,-32.283 z"
   style="fill:#ffffff"
   id="path313" />
</g></g><path
   style="fill:#ffff00;stroke:#000000;stroke-width:0.799466;stroke-dasharray:0.799466, 0.799466"
   d="m 174.55559,343.8982 c -3.41512,-1.38157 -7.87567,-7.23718 -8.64767,-11.35226 -0.5204,-2.77394 1.96687,-13.28363 10.26192,-43.36064 6.02184,-21.83459 10.9488,-40.18114 10.9488,-40.77011 0,-0.58899 -14.40533,-12.54404 -32.01184,-26.56679 -17.60651,-14.02276 -32.98096,-27.0854 -34.16544,-29.02809 -2.80418,-4.59923 -2.7582,-10.98891 0.11252,-15.63383 4.29233,-6.94513 4.96991,-7.06781 50.77654,-9.1927 22.91351,-1.06292 41.99568,-2.32008 42.40482,-2.79369 0.40914,-0.47361 6.95674,-17.50652 14.55022,-37.8509 7.59349,-20.34439 14.69097,-38.444475 15.7722,-40.222414 2.20484,-3.625562 8.10701,-6.85559 12.52709,-6.85559 4.42007,0 10.32224,3.230028 12.52708,6.85559 1.08124,1.777939 8.17872,19.878024 15.7722,40.222414 7.59349,20.34438 14.14126,37.37747 14.55062,37.8513 0.40937,0.47383 19.49154,1.72747 42.40482,2.78586 45.81818,2.1164 46.47129,2.23474 50.77615,9.20013 2.87071,4.64492 2.91669,11.0346 0.11251,15.63382 -1.18447,1.94268 -16.55892,15.01353 -34.16544,29.04631 -17.60651,14.03279 -32.01184,25.98785 -32.01184,26.5668 0,0.57895 4.92696,18.9173 10.9488,40.75189 12.09318,43.84866 12.15727,44.39425 6.00309,51.10961 -2.9224,3.1889 -4.4612,3.93853 -8.97513,4.37226 -3.72803,0.35822 -6.49761,-0.0193 -8.77266,-1.19577 -1.82857,-0.94559 -17.85837,-11.33213 -35.62178,-23.08121 -17.76341,-11.74906 -32.83082,-21.36194 -33.48313,-21.36194 -0.6523,0 -15.76958,9.62347 -33.59395,21.38549 -17.82436,11.76202 -33.77847,22.09422 -35.45357,22.96045 -3.31758,1.71559 -9.96574,1.97275 -13.54693,0.52401 z"
   id="path426" /></svg>
